<?xml version="1.0" encoding="UTF-8"?>
<svg width="24px" height="24px" viewBox="0 0 24 24" version="1.1" xmlns="http://www.w3.org/2000/svg" xmlns:xlink="http://www.w3.org/1999/xlink">
    <!-- Generator: Sketch 59 (86127) - https://sketch.com -->
    <title>tarjeta/input-icon/amex</title>
    <desc>Created with Sketch.</desc>
    <g id="tarjeta/input-icon/amex" stroke="none" stroke-width="1" fill="none" fill-rule="evenodd">
        <g id="amex" fill="#FFFFFF">
            <rect id="box" x="0" y="0" width="24" height="24" rx="1"></rect>
        </g>
        <g id="dls-logo-bluebox-solid" transform="translate(3.000000, 3.000000)" fill-rule="nonzero">
            <polygon id="logo-blue-box-small-45-9x45-a" fill="#FFFFFF" points="18 18 0 18 0 0.75 18 0.75"></polygon>
            <g id="Group">
                <path d="M17.96,9.45 L17.96,0.3375 L0,0.3375 L0,17.175 L17.96,17.175 L17.96,12.2625 C17.92,12.2625 17.96,9.45 17.96,9.45" id="Shape" fill="#006FCF"></path>
                <path d="M15.76,8.5125 L17.12,8.5125 L17.12,5.55 L15.64,5.55 L15.64,5.9625 L15.36,5.55 L14.08,5.55 L14.08,6.075 L13.84,5.55 L11.76,5.55 C11.68,5.55 11.56,5.55 11.48,5.55 C11.4,5.55 11.32,5.5875 11.24,5.5875 C11.16,5.5875 11.12,5.625 11.04,5.6625 C10.96,5.7 10.92,5.7 10.84,5.7375 L10.84,5.6625 L10.84,5.55 L4.08,5.55 L3.88,6.0375 L3.68,5.55 L2.08,5.55 L2.08,6.075 L1.84,5.55 L0.56,5.55 L0,6.825 L0,8.5125 L0.92,8.5125 L1.08,8.1 L1.4,8.1 L1.56,8.5125 L8.6,8.5125 L8.6,8.1375 L8.88,8.5125 L10.84,8.5125 L10.84,8.4375 L10.84,8.2875 C10.88,8.325 10.96,8.325 11,8.3625 C11.04,8.4 11.12,8.4 11.16,8.4375 C11.24,8.475 11.32,8.475 11.4,8.475 C11.48,8.475 11.6,8.475 11.68,8.475 L12.84,8.475 L13,8.0625 L13.32,8.0625 L13.48,8.475 L15.44,8.475 L15.44,8.1 L15.76,8.5125 Z M17.96,12.2625 L17.96,9.4875 L6.96,9.4875 L6.68,9.8625 L6.4,9.4875 L3.2,9.4875 L3.2,12.45 L6.4,12.45 L6.68,12.075 L6.96,12.45 L8.96,12.45 L8.96,11.8125 L8.88,11.8125 C9.16,11.8125 9.4,11.775 9.6,11.7 L9.6,12.4875 L11.04,12.4875 L11.04,12.1125 L11.32,12.4875 L17.28,12.4875 C17.52,12.4125 17.76,12.375 17.96,12.2625 L17.96,12.2625 Z" id="Shape" fill="#FFFFFF"></path>
                <path d="M17.28,11.55 L16.2,11.55 L16.2,11.9625 L17.24,11.9625 C17.68,11.9625 17.96,11.7 17.96,11.325 C17.96,10.95 17.72,10.7625 17.32,10.7625 L16.84,10.7625 C16.72,10.7625 16.64,10.6875 16.64,10.575 C16.64,10.4625 16.72,10.3875 16.84,10.3875 L17.76,10.3875 L17.96,9.975 L16.88,9.975 C16.44,9.975 16.16,10.2375 16.16,10.575 C16.16,10.95 16.4,11.1375 16.8,11.1375 L17.28,11.1375 C17.4,11.1375 17.48,11.2125 17.48,11.325 C17.52,11.475 17.44,11.55 17.28,11.55 L17.28,11.55 Z M15.32,11.55 L14.24,11.55 L14.24,11.9625 L15.28,11.9625 C15.72,11.9625 16,11.7 16,11.325 C16,10.95 15.76,10.7625 15.36,10.7625 L14.88,10.7625 C14.76,10.7625 14.68,10.6875 14.68,10.575 C14.68,10.4625 14.76,10.3875 14.88,10.3875 L15.8,10.3875 L16,9.975 L14.92,9.975 C14.48,9.975 14.2,10.2375 14.2,10.575 C14.2,10.95 14.44,11.1375 14.84,11.1375 L15.32,11.1375 C15.44,11.1375 15.52,11.2125 15.52,11.325 C15.56,11.475 15.44,11.55 15.32,11.55 L15.32,11.55 Z M13.92,10.35 L13.92,9.9375 L12.24,9.9375 L12.24,11.925 L13.92,11.925 L13.92,11.5125 L12.72,11.5125 L12.72,11.1 L13.88,11.1 L13.88,10.6875 L12.72,10.6875 L12.72,10.3125 L13.92,10.3125 L13.92,10.35 Z M11.2,10.35 C11.4,10.35 11.48,10.4625 11.48,10.575 C11.48,10.6875 11.4,10.8 11.2,10.8 L10.6,10.8 L10.6,10.3125 L11.2,10.35 L11.2,10.35 Z M10.6,11.2125 L10.84,11.2125 L11.48,11.925 L12.08,11.925 L11.36,11.175 C11.72,11.1 11.92,10.875 11.92,10.575 C11.92,10.2 11.64,9.9375 11.2,9.9375 L10.08,9.9375 L10.08,11.925 L10.56,11.925 L10.6,11.2125 L10.6,11.2125 Z M9.32,10.6125 C9.32,10.7625 9.24,10.875 9.04,10.875 L8.4,10.875 L8.4,10.35 L9,10.35 C9.2,10.35 9.32,10.4625 9.32,10.6125 L9.32,10.6125 Z M7.92,9.9375 L7.92,11.925 L8.4,11.925 L8.4,11.25 L9.04,11.25 C9.48,11.25 9.8,10.9875 9.8,10.575 C9.8,10.2 9.52,9.9 9.08,9.9 L7.92,9.9375 L7.92,9.9375 Z M7.2,11.925 L7.8,11.925 L6.96,10.9125 L7.8,9.9375 L7.2,9.9375 L6.68,10.575 L6.16,9.9375 L5.56,9.9375 L6.4,10.9125 L5.56,11.8875 L6.16,11.8875 L6.68,11.25 L7.2,11.925 Z M5.4,10.35 L5.4,9.9375 L3.72,9.9375 L3.72,11.925 L5.4,11.925 L5.4,11.5125 L4.2,11.5125 L4.2,11.1 L5.36,11.1 L5.36,10.6875 L4.2,10.6875 L4.2,10.3125 L5.4,10.3125 L5.4,10.35 Z M15.12,6.825 L15.96,8.025 L16.56,8.025 L16.56,6.0375 L16.08,6.0375 L16.08,7.35 L15.96,7.1625 L15.2,6.0375 L14.56,6.0375 L14.56,8.025 L15.04,8.025 L15.04,6.675 L15.12,6.825 Z M13.04,6.7875 L13.2,6.375 L13.36,6.7875 L13.56,7.2375 L12.84,7.2375 L13.04,6.7875 Z M13.88,8.025 L14.4,8.025 L13.48,6.0375 L12.84,6.0375 L11.92,8.025 L12.44,8.025 L12.64,7.6125 L13.68,7.6125 L13.88,8.025 Z M11.64,8.025 L11.64,8.025 L11.84,7.6125 L11.72,7.6125 C11.36,7.6125 11.16,7.3875 11.16,7.05 L11.16,7.0125 C11.16,6.675 11.36,6.45 11.72,6.45 L12.24,6.45 L12.24,6.0375 L11.68,6.0375 C11.04,6.0375 10.68,6.45 10.68,7.0125 L10.68,7.05 C10.68,7.65 11.04,8.025 11.64,8.025 L11.64,8.025 Z M9.84,8.025 L10.32,8.025 L10.32,7.125 L10.32,6.075 L9.84,6.075 L9.84,7.0875 L9.84,8.025 Z M8.8,6.45 C9,6.45 9.08,6.5625 9.08,6.675 C9.08,6.7875 9,6.9 8.8,6.9 L8.2,6.9 L8.2,6.4125 L8.8,6.45 L8.8,6.45 Z M8.2,7.3125 L8.44,7.3125 L9.08,8.025 L9.68,8.025 L8.96,7.275 C9.32,7.2 9.52,6.975 9.52,6.675 C9.52,6.3 9.24,6.0375 8.8,6.0375 L7.68,6.0375 L7.68,8.025 L8.16,8.025 L8.2,7.3125 L8.2,7.3125 Z M7.32,6.45 L7.32,6.0375 L5.64,6.0375 L5.64,8.025 L7.32,8.025 L7.32,7.6125 L6.12,7.6125 L6.12,7.2 L7.28,7.2 L7.28,6.7875 L6.12,6.7875 L6.12,6.4125 L7.32,6.4125 L7.32,6.45 L7.32,6.45 Z M3.68,8.025 L4.12,8.025 L4.72,6.4125 L4.72,8.025 L5.2,8.025 L5.2,6.0375 L4.4,6.0375 L3.92,7.3875 L3.44,6.0375 L2.64,6.0375 L2.64,8.025 L3.12,8.025 L3.12,6.4125 L3.68,8.025 Z M1.08,6.7875 L1.24,6.375 L1.4,6.7875 L1.6,7.2375 L0.88,7.2375 L1.08,6.7875 Z M1.92,8.025 L2.44,8.025 L1.52,6.0375 L0.92,6.0375 L0,8.025 L0.52,8.025 L0.72,7.6125 L1.76,7.6125 L1.92,8.025 Z" id="Shape" fill="#006FCF"></path>
            </g>
        </g>
    </g>
</svg>