<?xml version="1.0" encoding="UTF-8"?>
<svg width="16px" height="16px" viewBox="0 0 16 16" version="1.1" xmlns="http://www.w3.org/2000/svg" xmlns:xlink="http://www.w3.org/1999/xlink">
    <!-- Generator: Sketch 55.2 (78181) - https://sketchapp.com -->
    <title>atom/icons/interface/ayuda</title>
    <desc>Created with Sketch.</desc>
    <g id="Symbols" stroke="none" stroke-width="1" fill="none" fill-rule="evenodd">
        <g id="atom/input/text/active" transform="translate(-318.000000, -32.000000)" fill="#0071D1">
            <g id="atom/input/active">
                <g id="Group" transform="translate(0.000000, 13.000000)">
                    <g id="atom/icons/interface/ayuda" transform="translate(317.000000, 18.000000)">
                        <path d="M15.6089109,9 C15.6089109,5.35008411 12.6499159,2.39108911 9,2.39108911 C5.35008411,2.39108911 2.39108911,5.35008411 2.39108911,9 C2.39108911,12.6499159 5.35008411,15.6089109 9,15.6089109 C12.6499159,15.6089109 15.6089109,12.6499159 15.6089109,9 Z M16.5,9 C16.5,13.1420508 13.1420508,16.5 9,16.5 C4.85794919,16.5 1.5,13.1420508 1.5,9 C1.5,4.85794919 4.85794919,1.5 9,1.5 C13.1420508,1.5 16.5,4.85794919 16.5,9 Z M9,13.5 C8.586,13.5 8.25,13.16325 8.25,12.75 C8.25,12.33675 8.586,12 9,12 C9.414,12 9.75,12.33675 9.75,12.75 C9.75,13.16325 9.414,13.5 9,13.5 Z M9,11.25 C8.75742132,11.25 8.55803571,11.055628 8.55803571,10.8126209 L8.55803571,10.3678651 C8.55803571,9.77923107 8.79316228,9.22591537 9.2193081,8.80985658 L9.96783488,8.08015155 C10.2252072,7.82925091 10.3660714,7.49776918 10.3660714,7.14470745 L10.3660714,6.69995164 C10.3660714,5.9709816 9.75463813,5.37475822 9,5.37475822 C8.24536187,5.37475822 7.63392857,5.9709816 7.63392857,6.69995164 L7.63392857,7.28747582 C7.63392857,7.5304829 7.43454297,7.72485493 7.19196429,7.72485493 C6.9493856,7.72485493 6.75,7.5304829 6.75,7.28747582 L6.75,6.69995164 C6.75,5.48517958 7.76059096,4.5 9,4.5 C10.239409,4.5 11.25,5.48517958 11.25,6.69995164 L11.25,7.14470745 C11.25,7.73334147 11.0148734,8.28665717 10.5887276,8.70271596 L9.84020083,9.43242098 C9.58282855,9.68332163 9.44196429,10.0148034 9.44196429,10.3678651 L9.44196429,10.8126209 C9.44196429,11.055628 9.24257868,11.25 9,11.25 Z" id="Icon"></path>
                    </g>
                </g>
            </g>
        </g>
    </g>
</svg>