<?xml version="1.0" encoding="UTF-8"?>
<svg width="12px" height="16px" viewBox="0 0 12 16" version="1.1" xmlns="http://www.w3.org/2000/svg" xmlns:xlink="http://www.w3.org/1999/xlink">
    <!-- Generator: Sketch 55.2 (78181) - https://sketchapp.com -->
    <title>atom/icons/interface/ayuda</title>
    <desc>Created with Sketch.</desc>
    <g id="Symbols" stroke="none" stroke-width="1" fill="none" fill-rule="evenodd">
        <g id="atom/input/text/disebled" transform="translate(-320.000000, -32.000000)" fill="#777777">
            <g id="atom/input/active">
                <g id="Group" transform="translate(0.000000, 13.000000)">
                    <g id="atom/icons/interface/lock" transform="translate(317.000000, 18.000000)">
                        <path d="M4.85185185,5.591945 C4.85185185,3.33107717 6.70957837,1.5 9,1.5 C11.2904216,1.5 13.1481481,3.33107717 13.1481481,5.591945 L13.1481481,7.44059406 L13.1666667,7.44059406 C14.1762608,7.44059406 15,8.19757709 15,9.14280274 L15,14.7977913 C15,15.743017 14.1762608,16.5 13.1666667,16.5 L4.83333333,16.5 C3.82373918,16.5 3,15.743017 3,14.7977913 L3,9.14280274 C3,8.19757709 3.82373918,7.44059406 4.83333333,7.44059406 L4.85185185,7.44059406 L4.85185185,5.591945 Z M12.2592593,7.44059406 L12.2592593,5.591945 C12.2592593,3.82480023 10.8009764,2.39108911 9,2.39108911 C7.19902362,2.39108911 5.74074074,3.82480023 5.74074074,5.591945 L5.74074074,7.44059406 L12.2592593,7.44059406 Z M4.83333333,8.33168317 C4.30773184,8.33168317 3.88888889,8.70031735 3.88888889,9.14280274 L3.88888889,14.7977913 C3.88888889,15.2402767 4.30773184,15.6089109 4.83333333,15.6089109 L13.1666667,15.6089109 C13.6922682,15.6089109 14.1111111,15.2402767 14.1111111,14.7977913 L14.1111111,9.14280274 C14.1111111,8.70031735 13.6922682,8.33168317 13.1666667,8.33168317 L4.83333333,8.33168317 Z M10.5555556,11.970297 C10.5555556,12.8318528 9.8594285,13.529703 9,13.529703 C8.1405715,13.529703 7.44444444,12.8318528 7.44444444,11.970297 C7.44444444,11.1087412 8.1405715,10.4108911 9,10.4108911 C9.8594285,10.4108911 10.5555556,11.1087412 10.5555556,11.970297 Z" id="Icon"></path>
                    </g>
                </g>
            </g>
        </g>
    </g>
</svg>