<?xml version="1.0" encoding="UTF-8"?>
<svg width="24px" height="24px" viewBox="0 0 24 24" version="1.1" xmlns="http://www.w3.org/2000/svg" xmlns:xlink="http://www.w3.org/1999/xlink">
    <!-- Generator: Sketch 59 (86127) - https://sketch.com -->
    <title>tarjeta/input-icon/mastercard</title>
    <desc>Created with Sketch.</desc>
    <g id="tarjeta/input-icon/mastercard" stroke="none" stroke-width="1" fill="none" fill-rule="evenodd">
        <g id="mastercard">
            <rect id="box" fill="#FFFFFF" x="0" y="0" width="24" height="24" rx="1"></rect>
            <g id="mc_vrt_pos" transform="translate(1.000000, 3.000000)">
                <polygon id="Rectangle-path" points="0 0 22.1538462 0 22.1538462 18 0 18"></polygon>
                <path d="M5.76701783,15.1560597 L5.76701783,14.2595462 C5.77777573,14.1070186 5.7212142,13.9573179 5.61176313,13.8486355 C5.50231205,13.7399531 5.35055583,13.682799 5.19521028,13.6917543 C4.99049012,13.6785677 4.79469096,13.7759016 4.68423332,13.9457665 C4.58352766,13.7809662 4.39913226,13.6834997 4.20367166,13.6917543 C4.03348552,13.6833012 3.87146996,13.7640304 3.77785753,13.9039292 L3.77785753,13.7276148 L3.46153846,13.7276148 L3.46153846,15.1560597 L3.78089906,15.1560597 L3.78089906,14.3701162 C3.76714502,14.2712144 3.79903838,14.1714424 3.86787574,14.0980273 C3.93671309,14.0246121 4.0353092,13.9852169 4.13675801,13.9905921 C4.34662355,13.9905921 4.45307708,14.1250692 4.45307708,14.3671278 L4.45307708,15.1620365 L4.77243768,15.1620365 L4.77243768,14.3701162 C4.75924802,14.2713268 4.79133641,14.1718781 4.86004613,14.0985991 C4.92875586,14.0253201 5.02700809,13.9857603 5.12829663,13.9905921 C5.34424523,13.9905921 5.44765723,14.1250692 5.44765723,14.3671278 L5.44765723,15.1620365 L5.76701783,15.1560597 Z M10.4920339,13.7276148 L9.97193237,13.7276148 L9.97193237,13.2942999 L9.65257177,13.2942999 L9.65257177,13.7276148 L9.36362647,13.7276148 L9.36362647,14.0115108 L9.65865483,14.0115108 L9.65865483,14.6689541 C9.65865483,15.0006641 9.7894406,15.1979012 10.1635487,15.1979012 C10.3033159,15.1983583 10.4403747,15.160031 10.5589476,15.087327 L10.4677017,14.8213614 C10.3828739,14.8710745 10.2865985,14.8988355 10.187881,14.9020476 C10.0358045,14.9020476 9.97801543,14.8064195 9.97801543,14.6629773 L9.97801543,14.0115108 L10.4950754,14.0115108 L10.4920339,13.7276148 Z M13.1898706,13.6917543 C13.032763,13.6872146 12.8857151,13.7674803 12.8066379,13.9009408 L12.8066379,13.7276148 L12.4933603,13.7276148 L12.4933603,15.1560597 L12.8096794,15.1560597 L12.8096794,14.3551743 C12.8096794,14.1190924 12.9130914,13.9876038 13.1138324,13.9876038 C13.1814888,13.9866945 13.2486656,13.9988796 13.3115318,14.0234643 L13.4088607,13.7246264 C13.3366201,13.6992348 13.2605109,13.6860979 13.1837875,13.6857775 L13.1898706,13.6917543 Z M9.11117952,13.8411732 C8.93212848,13.7365765 8.72626634,13.6847138 8.51808127,13.6917543 C8.1500562,13.6917543 7.90977536,13.8650802 7.90977536,14.1489762 C7.90977536,14.3820697 8.08618408,14.5255119 8.41162773,14.5703376 L8.56370421,14.5912562 C8.73707139,14.6151632 8.81919269,14.6599889 8.81919269,14.7406751 C8.81919269,14.8512451 8.70361457,14.9140011 8.48766597,14.9140011 C8.3139646,14.9189412 8.14362385,14.866311 8.00406278,14.7645822 L7.8519863,15.0066408 C8.03624427,15.1330478 8.25693885,15.1979945 8.48158291,15.1919203 C8.90131398,15.1919203 9.14463634,14.9976757 9.14463634,14.7257332 C9.14463634,14.4537908 8.95301999,14.3432208 8.63670092,14.2983951 L8.48462444,14.2774765 C8.34775561,14.2595462 8.23826055,14.2326508 8.23826055,14.1370227 C8.23826055,14.0413946 8.34167255,13.9696735 8.51503974,13.9696735 C8.67527901,13.9715024 8.83236188,14.0136881 8.97126916,14.092197 L9.11117952,13.8411732 Z M17.58336,13.6917543 C17.4262524,13.6872146 17.2792044,13.7674803 17.2001272,13.9009408 L17.2001272,13.7276148 L16.8868497,13.7276148 L16.8868497,15.1560597 L17.2031688,15.1560597 L17.2031688,14.3551743 C17.2031688,14.1190924 17.3065808,13.9876038 17.5073217,13.9876038 C17.5749781,13.9866945 17.642155,13.9988796 17.7050211,14.0234643 L17.8023501,13.7246264 C17.7301095,13.6992348 17.6540002,13.6860979 17.5772769,13.6857775 L17.58336,13.6917543 Z M13.5077104,14.4388489 C13.5001032,14.6418248 13.5799019,14.8385539 13.7275193,14.9807478 C13.8751367,15.1229417 14.0769056,15.1974353 14.2833004,15.1859435 C14.4732255,15.1954376 14.6598774,15.134663 14.8064435,15.015606 L14.654367,14.7645822 C14.5450196,14.8465102 14.4116808,14.8915772 14.2741759,14.8930824 C14.0317204,14.8738079 13.8449534,14.6748575 13.8449534,14.4358605 C13.8449534,14.1968636 14.0317204,13.9979132 14.2741759,13.9786386 C14.4116808,13.9801438 14.5450196,14.0252108 14.654367,14.1071389 L14.8064435,13.8561151 C14.6598774,13.7370581 14.4732255,13.6762835 14.2833004,13.6857775 C14.0769056,13.6742858 13.8751367,13.7487793 13.7275193,13.8909733 C13.5799019,14.0331672 13.5001032,14.2298963 13.5077104,14.4328722 L13.5077104,14.4388489 Z M16.4701602,14.4388489 L16.4701602,13.7276148 L16.1538411,13.7276148 L16.1538411,13.9009408 C16.0448636,13.7631691 15.8750813,13.6853219 15.6976117,13.6917543 C15.2776641,13.6917543 14.9372293,14.0262399 14.9372293,14.4388489 C14.9372293,14.8514579 15.2776641,15.1859435 15.6976117,15.1859435 C15.8750813,15.1923759 16.0448636,15.1145288 16.1538411,14.976757 L16.1538411,15.150083 L16.4701602,15.150083 L16.4701602,14.4388489 Z M15.2930882,14.4388489 C15.3071546,14.2043611 15.5094082,14.0239288 15.7483125,14.0327391 C15.9872169,14.0415495 16.1751352,14.2363706 16.1712715,14.4712347 C16.1674078,14.7060988 15.9731794,14.8948511 15.73411,14.8960708 C15.6123787,14.8975842 15.4955361,14.8490753 15.4117934,14.7622564 C15.3280506,14.6754375 15.285019,14.5581994 15.2930882,14.4388489 L15.2930882,14.4388489 Z M11.4759687,13.6917543 C11.0560211,13.6975308 10.7203524,14.0366993 10.7262317,14.4493082 C10.732111,14.8619172 11.0773118,15.1917201 11.4972594,15.1859435 C11.7160578,15.196978 11.9312257,15.1277512 12.101003,14.9916989 L11.9489265,14.7615938 C11.8288412,14.8562176 11.6800708,14.9087969 11.5261539,14.9110127 C11.3087403,14.9293838 11.1159399,14.7743946 11.0912152,14.5613724 L12.1709582,14.5613724 C12.1709582,14.5225235 12.1709582,14.4836746 12.1709582,14.4418373 C12.1709582,13.9935805 11.888096,13.6947427 11.480531,13.6947427 L11.4759687,13.6917543 Z M11.4759687,13.9696735 C11.5715644,13.967671 11.6640523,14.0030731 11.7330751,14.0680873 C11.8020979,14.1331016 11.8419983,14.2223993 11.8439938,14.3163254 L11.0836114,14.3163254 C11.0950671,14.1168247 11.2666321,13.9628581 11.4698857,13.9696735 L11.4759687,13.9696735 Z M19.4006738,14.4418373 L19.4006738,13.1538462 L19.0965209,13.1538462 L19.0965209,13.9009408 C18.9875434,13.7631691 18.8177611,13.6853219 18.6402915,13.6917543 C18.2203439,13.6917543 17.8799091,14.0262399 17.8799091,14.4388489 C17.8799091,14.8514579 18.2203439,15.1859435 18.6402915,15.1859435 C18.8177611,15.1923759 18.9875434,15.1145288 19.0965209,14.976757 L19.0965209,15.150083 L19.4006738,15.150083 L19.4006738,14.4418373 Z M19.9283792,14.9483674 C19.9481511,14.9481294 19.9677805,14.9516822 19.9861683,14.9588268 C20.0036332,14.9658291 20.0196197,14.9759628 20.033312,14.9887106 C20.0466748,15.0015937 20.0575017,15.0167903 20.065248,15.0335362 C20.0808148,15.0688062 20.0808148,15.1088363 20.065248,15.1441062 C20.0575017,15.1608522 20.0466748,15.1760488 20.033312,15.1889319 C20.0196197,15.2016796 20.0036332,15.2118133 19.9861683,15.2188157 C19.967962,15.2267088 19.9482791,15.2307802 19.9283792,15.2307692 C19.8695332,15.2303334 19.8162247,15.1965794 19.7915104,15.1441062 C19.7761239,15.1087998 19.7761239,15.0688427 19.7915104,15.0335362 C19.7992568,15.0167903 19.8100836,15.0015937 19.8234464,14.9887106 C19.8371387,14.9759628 19.8531253,14.9658291 19.8705901,14.9588268 C19.8903981,14.9510851 19.9116413,14.9475216 19.9329415,14.9483674 L19.9283792,14.9483674 Z M19.9283792,15.2008854 C19.9435579,15.200976 19.9585854,15.1979212 19.9724814,15.1919203 C19.9855655,15.1861807 19.9974317,15.1780702 20.007459,15.1680133 C20.0468919,15.1257416 20.0468919,15.060866 20.007459,15.0185943 C19.9974556,15.0085096 19.9855837,15.0003952 19.9724814,14.9946873 C19.9585717,14.9887287 19.9435534,14.9856757 19.9283792,14.9857217 C19.9132181,14.9858009 19.8982252,14.9888487 19.884277,14.9946873 C19.8706137,15.0001919 19.8582054,15.0083195 19.8477787,15.0185943 C19.8083457,15.060866 19.8083457,15.1257416 19.8477787,15.1680133 C19.858231,15.1782574 19.8706326,15.1863807 19.884277,15.1919203 C19.89962,15.1984212 19.9162438,15.2014837 19.9329415,15.2008854 L19.9283792,15.2008854 Z M19.9375038,15.0230769 C19.9517003,15.0224005 19.9656898,15.0266297 19.9770437,15.0350304 C19.986488,15.0427099 19.9915839,15.0543927 19.9907306,15.0664084 C19.991172,15.0764426 19.9873104,15.0861989 19.9800852,15.0933038 C19.9712706,15.1011701 19.9600258,15.1059051 19.9481492,15.1067515 L19.9922513,15.1560597 L19.9572737,15.1560597 L19.9162131,15.1067515 L19.9025262,15.1067515 L19.9025262,15.1560597 L19.8736317,15.1560597 L19.8736317,15.0245711 L19.9375038,15.0230769 Z M19.904047,15.0484781 L19.904047,15.0843387 L19.9375038,15.0843387 C19.9434574,15.0860827 19.9497994,15.0860827 19.955753,15.0843387 C19.957922,15.0801094 19.957922,15.0751202 19.955753,15.070891 C19.957922,15.0666617 19.957922,15.0616725 19.955753,15.0574433 C19.9497994,15.0556993 19.9434574,15.0556993 19.9375038,15.0574433 L19.904047,15.0484781 Z M18.2312057,14.4418373 C18.2452721,14.2073495 18.4475257,14.0269171 18.68643,14.0357275 C18.9253344,14.0445378 19.1132527,14.239359 19.109389,14.4742231 C19.1055253,14.7090871 18.9112969,14.8978395 18.6722275,14.8990592 C18.5504963,14.9005726 18.4336537,14.8520636 18.3499109,14.7652448 C18.2661682,14.6784259 18.2231365,14.5611878 18.2312057,14.4418373 L18.2312057,14.4418373 Z M7.55087488,14.4418373 L7.55087488,13.7276148 L7.23455581,13.7276148 L7.23455581,13.9009408 C7.12557832,13.7631691 6.95579603,13.6853219 6.77832639,13.6917543 C6.3583788,13.6917543 6.01794401,14.0262399 6.01794401,14.4388489 C6.01794401,14.8514579 6.3583788,15.1859435 6.77832639,15.1859435 C6.95579603,15.1923759 7.12557832,15.1145288 7.23455581,14.976757 L7.23455581,15.150083 L7.55087488,15.150083 L7.55087488,14.4418373 Z M6.37380296,14.4418373 C6.38786928,14.2073495 6.59012292,14.0269171 6.82902724,14.0357275 C7.06793157,14.0445378 7.2558499,14.239359 7.2519862,14.4742231 C7.2481225,14.7090871 7.05389407,14.8978395 6.81482474,14.8990592 C6.69256887,14.9014174 6.57491283,14.8532783 6.4904956,14.7663596 C6.40607838,14.6794409 6.36264272,14.5617148 6.37076143,14.4418373 L6.37380296,14.4418373 Z" id="Shape" fill="#231F20" fill-rule="nonzero"></path>
                <g id="_Group_" transform="translate(2.076923, 2.076923)" fill-rule="nonzero">
                    <polygon id="Rectangle-path" fill="#FF5F00" points="6.3091716 1.11670179 10.9689349 1.11670179 10.9689349 9.16975764 6.3091716 9.16975764"></polygon>
                    <path d="M6.60502959,5.14394099 C6.60328737,3.57223546 7.35337926,2.08710061 8.63905325,1.11670179 C6.45559029,-0.533448904 3.3200499,-0.293090185 1.43600561,1.6688603 C-0.448038688,3.63081078 -0.448038688,6.65564865 1.43600561,8.61759913 C3.3200499,10.5795496 6.45559029,10.8199083 8.63905325,9.16975764 C7.35378828,8.19966689 6.60374221,6.71514732 6.60502959,5.14394099 L6.60502959,5.14394099 Z" id="_Path_" fill="#EB001B"></path>
                    <path d="M17.2559172,5.14394099 C17.2559172,7.10469584 16.0916303,8.89330642 14.2576561,9.75014297 C12.4236819,10.6069795 10.2419512,10.3816131 8.63905325,9.16975764 C9.92375743,8.1988433 10.67386,6.7145211 10.67386,5.14322972 C10.67386,3.57193833 9.92375743,2.08761613 8.63905325,1.11670179 C10.2419512,-0.0951536369 12.4236819,-0.320520076 14.2576561,0.536316466 C16.0916303,1.39315301 17.2559172,3.18176359 17.2559172,5.14251844 L17.2559172,5.14394099 Z" id="Shape" fill="#F79E1B"></path>
                    <path d="M16.8298817,8.68990202 L16.8298817,8.21527027 L16.9534845,8.21527027 L16.9534845,8.1170706 L16.6405325,8.1170706 L16.6405325,8.21527027 L16.7746548,8.21527027 L16.7746548,8.68990202 L16.8298817,8.68990202 Z M17.4373767,8.68990202 L17.4373767,8.1170706 L17.3427022,8.1170706 L17.2322485,8.5262359 L17.1217949,8.1170706 L17.0376397,8.1170706 L17.0376397,8.68990202 L17.1060158,8.68990202 L17.1060158,8.26027846 L17.2085799,8.63261888 L17.2795858,8.63261888 L17.3821499,8.26027846 L17.3821499,8.69399368 L17.4373767,8.68990202 Z" id="Shape" fill="#F79E1B"></path>
                </g>
            </g>
        </g>
    </g>
</svg>