<svg xmlns="http://www.w3.org/2000/svg" width="18" height="18" viewBox="0 0 18 18">
    <path fill="#00529B" fill-rule="evenodd" d="M2.984 3.125a.403.403 0 0 1 .583 0l10.767 11.149a.435.435 0 0 1 0 .601.403.403 0 0 1-.583 0l-1.974-2.042c-.917.43-1.846.667-2.777.667-1.749 0-3.488-.837-5.165-2.213a16.153 16.153 0 0 1-1.561-1.47 11.807 11.807 0 0 1-.599-.686.82.82 0 0 1 0-1.012c.113-.144.316-.383.599-.686.466-.5.99-1.001 1.561-1.47.25-.205.5-.398.753-.578L2.984 3.726a.435.435 0 0 1 0-.601zm-.666 5.5s3.196 4.04 6.682 4.04c.742 0 1.471-.184 2.159-.472l-1.155-1.196c-.31.126-.648.196-1.004.196-1.45 0-2.625-1.16-2.625-2.59 0-.395.09-.77.25-1.105L5.17 5.988C3.481 7.156 2.32 8.626 2.32 8.626zM9 3.75c2.001 0 3.812.842 5.402 2.228.546.477 1.028.986 1.442 1.497.252.31.428.555.526.706a.82.82 0 0 1-.045.95c-.113.144-.316.383-.599.686-.466.5-.99 1.001-1.561 1.47-.339.278-.68.534-1.023.766l-.591-.604c1.838-1.19 3.13-2.824 3.13-2.824S13.068 4.585 9 4.585c-.879 0-1.74.257-2.535.641L5.853 4.6c1.038-.545 2.09-.85 3.147-.85zM7.162 8.603c0 1.001.823 1.813 1.838 1.813.138 0 .272-.015.401-.043L7.228 8.122a1.792 1.792 0 0 0-.066.481zM9 6.013c1.45 0 2.625 1.16 2.625 2.59 0 .534-.164 1.03-.445 1.443l-.565-.577c.142-.257.223-.552.223-.866 0-1.001-.823-1.813-1.838-1.813a1.85 1.85 0 0 0-.819.19l-.565-.578A2.639 2.639 0 0 1 9 6.013z"/>
</svg>
