<svg xmlns="http://www.w3.org/2000/svg" width="18" height="18" viewBox="0 0 18 18">
    <path fill="#00529B" fill-rule="evenodd" d="M9 3.75c2.201 0 4.193.907 5.942 2.4a13.239 13.239 0 0 1 1.587 1.611c.277.334.47.599.577.761a.868.868 0 0 1-.049 1.023c-.124.155-.348.412-.658.739a17.62 17.62 0 0 1-1.718 1.583C12.837 13.349 10.924 14.25 9 14.25s-3.837-.901-5.681-2.383A17.62 17.62 0 0 1 1.6 10.284c-.31-.327-.534-.584-.658-.739a.868.868 0 0 1 0-1.09c.124-.155.348-.412.658-.739a17.62 17.62 0 0 1 1.718-1.583C5.163 4.651 7.076 3.75 9 3.75zm0 .9C5.165 4.65 1.65 9 1.65 9S5.165 13.35 9 13.35c3.835 0 7.35-4.35 7.35-4.35S13.474 4.65 9 4.65zM9 6a3 3 0 1 1 0 6 3 3 0 0 1 0-6zm0 .9a2.1 2.1 0 1 0 0 4.2 2.1 2.1 0 0 0 0-4.2z"/>
</svg>
